<?xml version="1.0" encoding="utf-8"?>
<svg viewBox="0 0 500 500" xmlns="http://www.w3.org/2000/svg">
  <g transform="matrix(0.07786, 0, 0, -0.07668, -3.507554, 496.24858)" fill="#" stroke="none" style="">
    <path d="M0 3200 l0 -3200 3200 0 3200 0 0 3200 0 3200 -3200 0 -3200 0 0 -3200z m5690 2136 c0 -14 -24 -37 -135 -131 -33 -27 -82 -71 -110 -97 -27 -26 -53 -48 -57 -48 -5 0 -8 -7 -8 -15 0 -8 3 -15 8 -15 18 -1 149 -21 165 -26 9 -3 15 -9 12 -14 -3 -5 -72 -55 -153 -111 -183 -128 -223 -159 -217 -169 2 -4 48 -13 100 -20 52 -7 98 -16 100 -20 8 -13 23 -5 -595 -347 -63 -35 -119 -68 -123 -72 -4 -4 22 -37 59 -72 101 -97 118 -156 64 -234 -16 -24 -36 -49 -43 -57 -21 -21 -133 -171 -144 -193 -10 -19 4 -58 54 -150 23 -42 62 -142 74 -188 6 -26 19 -51 28 -56 9 -5 48 -11 86 -15 256 -23 338 -45 366 -99 13 -24 33 -498 25 -567 -4 -24 -17 -61 -31 -82 -21 -31 -31 -38 -72 -43 -26 -4 -97 -15 -158 -25 -158 -27 -316 -30 -1985 -31 -1022 0 -1505 3 -1550 10 -36 6 -99 15 -140 20 -96 12 -121 22 -153 61 l-27 32 0 278 0 278 32 48 c38 56 66 67 212 84 145 17 213 27 224 34 5 3 22 43 37 88 15 45 49 127 77 182 49 101 49 101 32 131 -17 29 -102 145 -114 155 -19 16 -99 128 -104 146 -11 37 13 77 97 161 50 52 78 86 72 92 -6 5 -50 30 -100 56 -145 77 -217 116 -260 140 -22 12 -76 42 -120 65 -181 96 -226 123 -218 130 4 3 40 12 78 19 121 21 125 22 125 31 0 5 -79 64 -175 131 -97 67 -178 126 -181 131 -10 16 4 21 87 34 45 7 84 16 88 19 7 7 -34 45 -179 164 -115 96 -164 146 -156 160 10 15 -12 25 381 -184 102 -55 180 -96 347 -184 65 -35 120 -66 123 -71 8 -13 -7 -19 -86 -31 -110 -17 -119 -19 -119 -28 0 -4 53 -44 117 -88 268 -183 266 -181 246 -191 -10 -6 -53 -15 -95 -22 -44 -7 -78 -18 -77 -24 0 -12 224 -201 238 -201 4 0 44 33 87 74 95 89 129 111 172 111 44 0 78 -19 197 -110 152 -117 145 -113 191 -94 21 9 71 31 109 49 39 17 102 42 140 55 85 28 93 34 99 74 51 342 48 329 82 366 l32 35 293 3 c263 3 297 1 326 -15 47 -25 60 -61 87 -241 13 -89 29 -169 36 -176 6 -8 48 -26 93 -41 78 -26 222 -85 260 -106 22 -12 35 -5 150 85 200 156 221 166 288 121 23 -15 79 -63 125 -107 l84 -81 54 42 c30 24 56 46 58 49 2 4 30 29 63 57 77 64 85 72 85 82 0 5 -36 14 -80 21 -44 6 -88 15 -97 20 -12 7 23 36 163 136 99 70 186 131 194 136 26 15 -1 26 -92 40 -81 12 -119 24 -108 33 3 2 34 20 70 39 36 20 88 48 115 64 28 15 118 64 200 109 258 141 284 156 343 190 60 35 112 45 112 21z m-3595 -3031 c107 -28 155 -82 155 -175 0 -106 -28 -154 -112 -190 -103 -44 -305 -34 -378 19 -90 65 -103 201 -29 286 59 67 228 95 364 60z m652 -13 c46 -25 59 -75 35 -135 -13 -33 -13 -40 1 -55 23 -27 29 -58 17 -101 -8 -32 -18 -43 -53 -60 -40 -19 -61 -21 -245 -21 l-202 0 0 119 c0 105 2 119 18 123 10 3 89 6 177 7 154 2 198 10 165 31 -8 5 -88 10 -177 10 -182 0 -183 1 -132 62 l30 37 147 3 c146 3 181 0 219 -20z m527 14 c73 -22 112 -58 132 -120 31 -98 -1 -189 -82 -233 -120 -67 -363 -47 -437 35 -25 27 -46 88 -46 132 -1 45 39 131 71 152 72 47 259 65 362 34z m666 2 c0 -7 -14 -31 -31 -53 -29 -38 -33 -40 -97 -45 l-67 -5 -3 -143 -3 -143 -62 3 -62 3 -5 140 -5 140 -82 3 c-96 3 -100 9 -47 70 l36 42 214 0 c165 0 214 -3 214 -12z m170 -188 l0 -201 -62 3 -63 3 -3 185 c-1 101 0 190 2 197 4 9 26 13 66 13 l60 0 0 -200z m560 193 c0 -7 -43 -64 -66 -87 -12 -13 -39 -16 -131 -16 l-115 0 -33 -33 c-27 -27 -31 -38 -27 -65 2 -19 15 -41 30 -52 22 -18 40 -20 183 -20 181 0 180 0 124 -74 l-36 -46 -112 0 c-134 1 -177 9 -231 47 -107 75 -124 201 -39 288 51 52 102 63 291 64 89 1 162 -2 162 -6z m530 -4 c0 -7 -16 -31 -35 -55 l-36 -43 -147 -3 c-123 -3 -147 -5 -147 -18 0 -12 26 -16 155 -20 155 -5 180 -11 211 -47 46 -51 25 -146 -39 -179 -32 -16 -65 -19 -241 -22 -129 -2 -207 0 -214 7 -6 6 1 25 25 58 l34 48 165 5 c137 4 164 7 164 20 0 13 -27 16 -160 20 -173 5 -195 11 -220 60 -33 64 -8 138 54 164 46 19 431 23 431 5z m-3634 -18 c56 -25 84 -64 84 -115 0 -45 -27 -99 -59 -116 -12 -6 -21 -15 -21 -19 0 -5 20 -29 45 -54 25 -26 45 -51 45 -57 0 -6 -31 -10 -79 -10 l-79 0 -33 43 c-19 23 -38 45 -44 49 -5 4 -47 8 -92 8 l-82 0 -3 -47 -3 -48 -62 -3 -63 -3 0 101 0 100 153 1 c174 0 225 7 241 31 8 14 7 22 -7 35 -15 16 -39 18 -180 20 -193 1 -187 1 -187 11 0 4 14 27 31 50 l31 42 161 0 c136 0 169 -3 203 -19z m1008 -550 c4 -5 -9 -29 -27 -53 l-33 -43 -128 -5 c-126 -5 -128 -5 -152 -34 -34 -39 -30 -91 9 -120 25 -19 44 -21 183 -24 85 -2 154 -6 154 -10 0 -4 -16 -28 -35 -54 l-35 -48 -93 0 c-191 1 -270 28 -316 111 -32 57 -31 138 4 190 53 81 106 98 307 99 86 0 159 -4 162 -9z m176 -136 l5 -140 143 -3 c78 -1 142 -6 142 -11 0 -4 -16 -29 -36 -55 l-35 -46 -172 2 -172 3 -3 198 -2 198 62 -3 63 -3 5 -140z m450 21 c0 -124 0 -125 27 -146 25 -19 38 -21 116 -18 117 4 117 5 117 165 l0 123 65 0 65 0 0 -135 c0 -162 -13 -200 -83 -237 -37 -21 -56 -23 -172 -23 -114 0 -135 3 -170 22 -49 26 -69 48 -84 92 -12 36 -16 263 -4 274 3 4 33 7 65 7 l58 0 0 -124z m887 107 c47 -22 71 -75 53 -118 -19 -46 -23 -75 -12 -75 16 0 33 -61 26 -96 -14 -77 -74 -94 -330 -94 l-174 0 0 125 0 125 173 0 c168 0 207 6 193 29 -5 7 -64 11 -181 11 -96 0 -176 4 -180 9 -3 5 1 15 8 23 7 7 23 28 36 46 l22 32 166 0 c133 0 172 -3 200 -17z m-2849 -686 l3 -118 -38 3 -38 3 -3 109 c-3 118 1 128 48 124 25 -3 25 -3 28 -121z m103 113 c5 0 9 -52 9 -115 l0 -115 -34 0 c-43 0 -46 9 -46 120 0 92 15 128 47 116 8 -3 19 -6 24 -6z m127 -112 l3 -118 -36 0 -35 0 0 113 c0 63 3 117 7 121 4 4 19 6 33 4 l25 -3 3 -117z m316 114 c3 -5 -4 -21 -15 -36 -16 -20 -29 -26 -60 -26 l-39 0 0 -86 0 -85 -37 3 -38 3 -3 83 -3 82 -44 0 c-54 0 -61 10 -32 42 22 23 30 25 144 27 67 1 124 -2 127 -7z m249 -20 c68 -39 67 -143 -2 -189 -30 -20 -46 -23 -137 -23 l-104 0 0 76 0 75 38 -3 c35 -3 37 -5 42 -43 l5 -40 51 0 c58 1 84 16 84 51 0 43 -24 54 -121 54 -49 0 -89 4 -89 9 0 4 10 20 21 35 21 27 24 27 101 22 51 -3 91 -12 111 -24z m395 11 c16 -15 72 -182 72 -215 0 -5 -16 -8 -35 -8 -34 0 -35 2 -52 60 -10 33 -20 60 -23 60 -3 0 -20 -27 -38 -60 -29 -52 -37 -60 -62 -60 -25 0 -34 8 -62 60 -18 33 -36 60 -39 60 -3 0 -13 -27 -22 -60 -17 -59 -18 -60 -53 -60 -34 0 -35 1 -29 30 3 16 18 66 33 112 27 82 27 83 60 83 30 0 37 -6 59 -45 57 -102 49 -101 95 -24 52 89 62 96 96 67z m445 8 c13 -2 8 -130 -7 -166 -20 -47 -60 -65 -146 -65 -38 0 -70 3 -70 8 0 4 7 18 16 30 11 16 25 22 52 22 21 0 48 7 60 16 19 13 22 24 22 84 0 71 6 81 45 75 11 -2 23 -4 28 -4z m208 -1 c10 -6 53 -59 94 -118 l76 -107 -71 -3 c-39 -2 -100 -2 -136 0 l-66 3 22 28 c17 21 30 27 60 27 21 0 41 4 44 8 3 5 -7 23 -22 41 l-27 33 -50 -71 c-48 -68 -51 -70 -92 -71 -24 0 -43 3 -43 6 0 14 141 204 162 219 27 18 24 18 49 5z m434 -4 c39 -17 56 -57 36 -89 -10 -16 -10 -21 0 -27 21 -14 15 -71 -10 -92 -20 -15 -42 -18 -147 -18 l-124 0 0 69 c0 54 4 70 16 75 9 3 58 6 110 6 61 0 93 4 89 10 -3 6 -50 10 -106 10 -107 0 -116 6 -77 47 19 20 31 23 100 23 46 0 93 -6 113 -14z m255 4 c10 0 146 -188 156 -215 5 -13 -11 -15 -125 -15 -72 0 -131 2 -131 5 0 3 7 17 16 30 13 20 25 25 60 25 51 0 57 14 20 56 l-23 28 -52 -72 c-50 -68 -55 -72 -92 -72 -21 0 -39 2 -39 5 0 15 126 194 153 218 11 10 27 15 34 12 8 -3 19 -5 23 -5z m254 4 c13 -5 16 -22 16 -84 0 -92 1 -93 103 -89 66 2 73 -6 40 -43 -13 -15 -34 -18 -120 -18 l-103 0 0 114 c0 114 3 123 37 125 6 1 18 -2 27 -5z m473 -20 c44 -33 44 -112 0 -136 -12 -7 -60 -15 -107 -18 -84 -5 -85 -5 -88 -32 -3 -25 -8 -28 -38 -28 l-34 0 0 65 0 64 113 3 c92 2 112 6 112 18 0 12 -20 16 -107 18 -116 3 -126 9 -88 50 19 20 29 22 115 19 77 -2 99 -6 122 -23z m143 -54 c5 -67 7 -76 30 -87 38 -19 87 -16 110 7 16 16 20 33 20 85 l0 65 35 0 35 0 0 -81 c0 -44 -5 -89 -11 -101 -34 -63 -227 -64 -275 0 -9 11 -13 47 -14 99 0 84 5 94 45 90 18 -2 21 -11 25 -77z m500 71 c77 -16 105 -83 55 -134 l-26 -25 31 -33 31 -34 -48 -3 c-43 -3 -51 0 -74 27 -22 27 -32 31 -77 31 -48 0 -51 -1 -54 -27 -3 -25 -7 -28 -38 -28 l-35 0 0 60 0 60 115 5 c93 4 115 8 115 20 0 12 -20 16 -112 18 -62 1 -113 6 -113 10 0 4 8 17 18 29 23 29 125 40 212 24z" style="fill: rgb(195, 1, 0);"/>
    <path d="M3910 3621 c-5 -11 -10 -31 -10 -45 0 -29 -29 -52 -77 -62 -24 -5 -39 -1 -59 15 -15 11 -33 21 -40 21 -16 0 -114 -93 -114 -108 0 -5 12 -27 26 -48 25 -37 26 -40 12 -79 -13 -34 -20 -41 -54 -48 -64 -14 -69 -19 -72 -77 -5 -79 2 -97 40 -105 60 -12 68 -16 83 -45 20 -39 19 -62 -5 -93 -29 -37 -25 -58 23 -105 48 -47 83 -54 112 -22 22 24 41 25 88 5 30 -12 37 -21 42 -52 11 -66 8 -64 97 -61 l83 3 10 48 c9 42 15 51 44 63 44 19 58 18 88 -6 37 -29 63 -25 111 20 47 44 52 71 22 110 -23 30 -25 50 -6 94 12 29 20 34 60 40 25 4 49 13 53 19 4 7 6 41 5 77 -3 73 -16 90 -69 90 -28 0 -35 5 -53 42 -25 53 -25 53 6 93 30 40 26 52 -41 114 -44 41 -47 42 -68 27 -50 -37 -66 -41 -110 -25 -38 13 -42 18 -50 59 -5 25 -14 48 -21 52 -6 4 -41 8 -78 8 -56 0 -69 -3 -78 -19z m175 -240 c62 -28 111 -89 125 -154 14 -72 5 -119 -34 -170 -126 -165 -396 -81 -396 124 0 158 163 265 305 200z" style="fill: rgb(195, 1, 0);"/>
    <path d="M2286 3622 c-3 -5 -8 -28 -12 -52 -6 -36 -12 -44 -40 -56 -44 -19 -64 -17 -94 6 -36 28 -52 25 -104 -21 -52 -46 -58 -75 -26 -116 24 -31 25 -42 3 -87 -14 -30 -23 -36 -60 -42 -27 -4 -47 -13 -53 -25 -12 -21 -13 -119 -2 -135 4 -6 27 -15 50 -19 39 -6 46 -12 62 -48 18 -41 18 -41 -6 -82 -13 -23 -24 -46 -24 -52 0 -6 23 -33 51 -62 53 -54 63 -56 111 -13 20 17 83 11 105 -11 7 -7 17 -33 21 -58 l7 -44 74 -3 c42 -2 78 2 86 8 7 6 16 30 19 54 6 39 11 45 48 60 41 16 43 15 78 -9 20 -14 43 -25 52 -25 15 0 108 92 108 107 0 4 -11 26 -24 47 -22 38 -23 40 -7 78 14 34 23 40 68 54 l52 15 7 55 c7 57 -5 101 -28 108 -7 2 -30 8 -52 12 -33 8 -40 15 -51 48 -13 37 -12 41 11 71 35 46 30 66 -26 119 -48 45 -52 47 -73 33 -67 -43 -64 -42 -109 -26 -39 14 -44 20 -48 55 -3 21 -9 45 -13 52 -9 14 -152 17 -161 4z m148 -246 c107 -33 161 -110 154 -222 -3 -50 -10 -72 -34 -106 -96 -137 -315 -118 -379 34 -19 46 -20 128 -1 171 20 47 78 100 133 119 59 21 68 21 127 4z" style="fill: rgb(195, 1, 0);"/>
    <path d="M1860 2192 c-58 -29 -67 -114 -16 -147 53 -35 215 -31 255 6 16 15 21 32 21 70 0 45 -3 51 -32 69 -44 27 -177 28 -228 2z" style="fill: rgb(195, 1, 0);"/>
    <path d="M2440 2050 c0 -20 5 -21 112 -18 98 3 113 5 116 21 3 15 -7 17 -112 17 -110 0 -116 -1 -116 -20z" style="fill: rgb(195, 1, 0);"/>
    <path d="M3014 2196 c-17 -8 -34 -21 -38 -31 -12 -32 -6 -83 13 -106 18 -22 28 -24 124 -27 129 -5 162 8 173 65 8 44 -9 82 -46 100 -33 17 -186 16 -226 -1z" style="fill: rgb(195, 1, 0);"/>
    <path d="M3791 1501 c-8 -5 -11 -16 -8 -25 5 -13 24 -16 106 -16 55 0 106 3 115 6 21 8 21 30 0 38 -24 9 -197 7 -213 -3z" style="fill: rgb(195, 1, 0);"/>
    <path d="M3345 1011 c-3 -5 4 -13 16 -16 28 -9 131 4 124 16 -8 12 -132 12 -140 0z" style="fill: rgb(195, 1, 0);"/>
  </g>
</svg>