<?xml version="1.0" encoding="utf-8"?>
<svg viewBox="0 0 500 500" xmlns="http://www.w3.org/2000/svg">
  <g transform="matrix(0.07786, 0, 0, -0.07668, -3.507554, 496.24858)" fill="#" stroke="none" style="">
    <path d="M 0 3200 L 0 0 L 3200 0 L 6400 0 L 6400 3200 L 6400 6400 L 3200 6400 L 0 6400 L 0 3200 Z M 5690 5336 C 5690 5322 5666 5299 5555 5205 C 5522 5178 5473 5134 5445 5108 C 5418 5082 5392 5060 5388 5060 C 5383 5060 5380 5053 5380 5045 C 5380 5037 5383 5030 5388 5030 C 5406 5029 5537 5009 5553 5004 C 5562 5001 5568 4995 5565 4990 C 5562 4985 5493 4935 5412 4879 C 5229 4751 5189 4720 5195 4710 C 5197 4706 5243 4697 5295 4690 C 5347 4683 5393 4674 5395 4670 C 5403 4657 5418 4665 4800 4323 C 4737 4288 4681 4255 4677 4251 C 4673 4247 4699 4214 4736 4179 C 4837 4082 4854 4023 4800 3945 C 4784 3921 4764 3896 4757 3888 C 4736 3867 4624 3717 4613 3695 C 4603 3676 4617 3637 4667 3545 C 4690 3503 4729 3403 4741 3357 C 4747 3331 4760 3306 4769 3301 C 4778 3296 4817 3290 4855 3286 C 5111 3263 5193 3241 5221 3187 C 5234 3163 5254 2689 5246 2620 C 5242 2596 5229 2559 5215 2538 C 5194 2507 5184 2500 5143 2495 C 5117 2491 5046 2480 4985 2470 C 4827 2443 4669 2440 3000 2439 C 1978 2439 1495 2442 1450 2449 C 1414 2455 1351 2464 1310 2469 C 1214 2481 1189 2491 1157 2530 L 1130 2562 L 1130 2840 L 1130 3118 L 1162 3166 C 1200 3222 1228 3233 1374 3250 C 1519 3267 1587 3277 1598 3284 C 1603 3287 1620 3327 1635 3372 C 1650 3417 1684 3499 1712 3554 C 1761 3655 1761 3655 1744 3685 C 1727 3714 1642 3830 1630 3840 C 1611 3856 1531 3968 1526 3986 C 1515 4023 1539 4063 1623 4147 C 1673 4199 1701 4233 1695 4239 C 1689 4244 1645 4269 1595 4295 C 1450 4372 1378 4411 1335 4435 C 1313 4447 1259 4477 1215 4500 C 1034 4596 989 4623 997 4630 C 1001 4633 1037 4642 1075 4649 C 1196 4670 1200 4671 1200 4680 C 1200 4685 1121 4744 1025 4811 C 928 4878 847 4937 844 4942 C 834 4958 848 4963 931 4976 C 976 4983 1015 4992 1019 4995 C 1026 5002 985 5040 840 5159 C 725 5255 676 5305 684 5319 C 694 5334 672 5344 1065 5135 C 1167 5080 1245 5039 1412 4951 C 1477 4916 1532 4885 1535 4880 C 1543 4867 1528 4861 1449 4849 C 1339 4832 1330 4830 1330 4821 C 1330 4817 1383 4777 1447 4733 C 1715 4550 1713 4552 1693 4542 C 1683 4536 1640 4527 1598 4520 C 1554 4513 1520 4502 1521 4496 C 1521 4484 1745 4295 1759 4295 C 1763 4295 1803 4328 1846 4369 C 1941 4458 1975 4480 2018 4480 C 2062 4480 2096 4461 2215 4370 C 2367 4253 2360 4257 2406 4276 C 2427 4285 2477 4307 2515 4325 C 2554 4342 2617 4367 2655 4380 C 2740 4408 2748 4414 2754 4454 C 2805 4796 2802 4783 2836 4820 L 2868 4855 L 3161 4858 C 3424 4861 3458 4859 3487 4843 C 3534 4818 3547 4782 3574 4602 C 3587 4513 3603 4433 3610 4426 C 3616 4418 3658 4400 3703 4385 C 3781 4359 3925 4300 3963 4279 C 3985 4267 3998 4274 4113 4364 C 4313 4520 4334 4530 4401 4485 C 4424 4470 4480 4422 4526 4378 L 4610 4297 L 4664 4339 C 4694 4363 4720 4385 4722 4388 C 4724 4392 4752 4417 4785 4445 C 4862 4509 4870 4517 4870 4527 C 4870 4532 4834 4541 4790 4548 C 4746 4554 4702 4563 4693 4568 C 4681 4575 4716 4604 4856 4704 C 4955 4774 5042 4835 5050 4840 C 5076 4855 5049 4866 4958 4880 C 4877 4892 4839 4904 4850 4913 C 4853 4915 4884 4933 4920 4952 C 4956 4972 5008 5000 5035 5016 C 5063 5031 5153 5080 5235 5125 C 5493 5266 5519 5281 5578 5315 C 5638 5350 5690 5360 5690 5336 Z" style="fill: rgba(255, 255, 255, 0);"/>
    <path d="M3910 3621 c-5 -11 -10 -31 -10 -45 0 -29 -29 -52 -77 -62 -24 -5 -39 -1 -59 15 -15 11 -33 21 -40 21 -16 0 -114 -93 -114 -108 0 -5 12 -27 26 -48 25 -37 26 -40 12 -79 -13 -34 -20 -41 -54 -48 -64 -14 -69 -19 -72 -77 -5 -79 2 -97 40 -105 60 -12 68 -16 83 -45 20 -39 19 -62 -5 -93 -29 -37 -25 -58 23 -105 48 -47 83 -54 112 -22 22 24 41 25 88 5 30 -12 37 -21 42 -52 11 -66 8 -64 97 -61 l83 3 10 48 c9 42 15 51 44 63 44 19 58 18 88 -6 37 -29 63 -25 111 20 47 44 52 71 22 110 -23 30 -25 50 -6 94 12 29 20 34 60 40 25 4 49 13 53 19 4 7 6 41 5 77 -3 73 -16 90 -69 90 -28 0 -35 5 -53 42 -25 53 -25 53 6 93 30 40 26 52 -41 114 -44 41 -47 42 -68 27 -50 -37 -66 -41 -110 -25 -38 13 -42 18 -50 59 -5 25 -14 48 -21 52 -6 4 -41 8 -78 8 -56 0 -69 -3 -78 -19z m175 -240 c62 -28 111 -89 125 -154 14 -72 5 -119 -34 -170 -126 -165 -396 -81 -396 124 0 158 163 265 305 200z" style="fill: rgb(195, 1, 0);"/>
    <path d="M2286 3622 c-3 -5 -8 -28 -12 -52 -6 -36 -12 -44 -40 -56 -44 -19 -64 -17 -94 6 -36 28 -52 25 -104 -21 -52 -46 -58 -75 -26 -116 24 -31 25 -42 3 -87 -14 -30 -23 -36 -60 -42 -27 -4 -47 -13 -53 -25 -12 -21 -13 -119 -2 -135 4 -6 27 -15 50 -19 39 -6 46 -12 62 -48 18 -41 18 -41 -6 -82 -13 -23 -24 -46 -24 -52 0 -6 23 -33 51 -62 53 -54 63 -56 111 -13 20 17 83 11 105 -11 7 -7 17 -33 21 -58 l7 -44 74 -3 c42 -2 78 2 86 8 7 6 16 30 19 54 6 39 11 45 48 60 41 16 43 15 78 -9 20 -14 43 -25 52 -25 15 0 108 92 108 107 0 4 -11 26 -24 47 -22 38 -23 40 -7 78 14 34 23 40 68 54 l52 15 7 55 c7 57 -5 101 -28 108 -7 2 -30 8 -52 12 -33 8 -40 15 -51 48 -13 37 -12 41 11 71 35 46 30 66 -26 119 -48 45 -52 47 -73 33 -67 -43 -64 -42 -109 -26 -39 14 -44 20 -48 55 -3 21 -9 45 -13 52 -9 14 -152 17 -161 4z m148 -246 c107 -33 161 -110 154 -222 -3 -50 -10 -72 -34 -106 -96 -137 -315 -118 -379 34 -19 46 -20 128 -1 171 20 47 78 100 133 119 59 21 68 21 127 4z" style="fill: rgb(195, 1, 0);"/>
  </g>
</svg>